<?xml version="1.0" encoding="UTF-8"?>
<svg width="22px" height="20px" viewBox="0 0 22 20" version="1.1" xmlns="http://www.w3.org/2000/svg" xmlns:xlink="http://www.w3.org/1999/xlink">
    <!-- Generator: Sketch 43 (38999) - http://www.bohemiancoding.com/sketch -->
    <title>sit-down</title>
    <desc>Created with Sketch.</desc>
    <defs></defs>
    <g id="Welcome" stroke="none" stroke-width="1" fill="none" fill-rule="evenodd">
        <g id="мери-мебель" transform="translate(-1196.000000, -14.000000)" fill-rule="nonzero">
            <g id="Group-3" transform="translate(1178.000000, 0.000000)">
                <g id="sit-down" transform="translate(18.000000, 14.000000)">
                    <g id="Group" transform="translate(3.910156, 0.381356)" fill="#FCD577">
                        <path d="M1.77576953,15.5257627 L1.77576953,13.4252542 C1.77576953,12.6658051 2.40023438,12.05 3.17036328,12.05 L11.0607578,12.05 C11.8314883,12.05 12.4559531,12.6658051 12.4559531,13.4252542 L12.4559531,15.5257627" id="Shape"></path>
                        <path d="M14.2182305,7.94110169 L14.2182305,5.08597458 C14.2182305,2.29271186 11.9220234,0.0283474576 9.08948047,0.0283474576 L5.14219922,0.0283474576 C2.30965625,0.0283474576 0.0134492188,2.29271186 0.0134492188,5.08597458 L0.0134492188,7.94110169 L0.0134492188,15.5257203 L14.0193281,15.5257203" id="Shape"></path>
                    </g>
                    <g id="Group" transform="translate(3.910156, 0.381356)" fill="#EAC36E">
                        <path d="M4.57827734,12.0501271 C3.80814844,12.0501271 3.18351172,12.6656356 3.18351172,13.4250847 L3.18351172,15.5255932 L1.77576953,15.5255932 L1.77576953,13.4250847 C1.77576953,12.6656356 2.39993359,12.0501271 3.1700625,12.0501271 L4.57827734,12.0501271 Z" id="Shape"></path>
                        <path d="M12.4559102,13.4250847 L12.4559102,15.5255932 L11.0476953,15.5255932 L11.0476953,13.4250847 C11.0476953,12.6656356 10.4230156,12.0501271 9.65241406,12.0501271 L11.0606289,12.0501271 C11.8312734,12.0501271 12.4559102,12.6656356 12.4559102,13.4250847 Z" id="Shape"></path>
                        <path d="M1.56264453,5.08597458 C1.56264453,2.29271186 3.85885156,0.0283474576 6.69139453,0.0283474576 L5.14224219,0.0283474576 C2.30969922,0.0283474576 0.0134921875,2.29271186 0.0134921875,5.08597458 L0.0134921875,7.94110169 L0.0134921875,15.5257203 L1.56264453,15.5257203 L1.56264453,7.94110169 L1.56264453,5.08597458 Z" id="Shape"></path>
                    </g>
                    <g id="Group" transform="translate(0.386719, 8.135593)" fill="#FCD577">
                        <path d="M5.29920703,7.77152542 L5.29920703,5.67101695 L5.29920703,2.64483051 C5.29920703,1.51 4.56375391,0.544322034 3.53688672,0.18690678 C3.25269141,0.0877118644 2.94598047,0.0353813559 2.62646484,0.0387711864 C1.19749609,0.0539830508 0.0265976562,1.21029661 0.0129765625,2.61949153 C0.0048125,3.46826271 0.407902344,4.22427966 1.03765234,4.70572034 C1.84963281,5.32639831 2.30325391,6.29957627 2.30325391,7.31266949 L2.30325391,7.77161017" id="Shape"></path>
                        <path d="M15.9793477,7.77152542 L15.9793477,5.67101695 L15.9793477,2.64483051 C15.9793477,1.51 16.7148008,0.544322034 17.741668,0.18690678 C18.0171836,0.090720339 18.3132383,0.0386016949 18.6222266,0.0386016949 C20.0826055,0.0386016949 21.2656641,1.20525424 21.2656641,2.64483051 C21.2656641,3.47101695 20.8760234,4.20716102 20.2680156,4.68457627 C19.4637695,5.31601695 18.9746992,6.25809322 18.9746992,7.27182203 L18.9746992,7.7715678" id="Shape"></path>
                    </g>
                    <polygon id="Shape" fill="#CFDCE5" points="4.22558984 17.5047881 2.69001563 17.5047881 2.69001563 15.9071186 5.68592578 15.9071186 16.3660664 15.9071186 19.361375 15.9071186 19.361375 17.5047881 17.8258008 17.5047881"></polygon>
                    <polygon id="Shape" fill="#BAC6CC" points="2.86176172 17.5047881 2.69001563 17.5047881 2.69001563 15.9071186 3.02517188 15.9071186 4.22008984 15.9071186 4.55520313 15.9071186 4.55520313 17.5047881 4.38345703 17.5047881"></polygon>
                    <g id="Group" transform="translate(2.234375, 10.127119)" fill="#FF6F52">
                        <polygon id="Shape" points="3.30674609 7.37766949 3.30674609 9.46305085 1.87691797 9.46305085 1.49217578 7.37766949"></polygon>
                        <polygon id="Shape" points="14.2770547 7.37766949 14.2770547 9.46305085 15.7069258 9.46305085 16.0910664 7.37766949"></polygon>
                        <ellipse id="Oval" cx="16.8238125" cy="0.745084746" rx="1" ry="1"></ellipse>
                        <ellipse id="Oval" cx="0.759472656" cy="0.745084746" rx="1" ry="1"></ellipse>
                    </g>
                    <path d="M18.9829492,7.80572034 C18.8118906,7.80572034 18.6425508,7.81983051 18.4760039,7.84762712 L18.4760039,5.46728814 C18.4760039,3.52847458 17.4156211,1.72398305 15.7085586,0.758050847 C15.5297227,0.656822034 15.3013008,0.717711864 15.1986055,0.894237288 C15.0959102,1.07076271 15.1577422,1.29584746 15.336707,1.39716102 C16.812168,2.23216102 17.7288203,3.79173729 17.7288203,5.46733051 L17.7288203,8.07487288 C16.6647422,8.55457627 15.9665,9.61038136 15.9665,10.7804237 L15.9665,12.3845763 C15.67775,12.1823729 15.3253203,12.0630085 14.944918,12.0630085 L13.4499922,12.0630085 L14.3470937,9.8459322 C14.4235781,9.65694915 14.330207,9.44262712 14.1385234,9.36724576 C13.9470547,9.29190678 13.7295469,9.38385593 13.6531055,9.57292373 L12.6455312,12.0630085 L11.3735273,12.0630085 L11.3735273,6.2304661 C11.3735273,6.02699153 11.206293,5.8620339 10.9999141,5.8620339 C10.7935352,5.8620339 10.6263008,6.02699153 10.6263008,6.2304661 L10.6263008,12.0629661 L9.35451172,12.0629661 L7.50569531,7.49385593 C7.42921094,7.30487288 7.21200391,7.21279661 7.02019141,7.28822034 C6.82855078,7.36364407 6.73522266,7.5779661 6.81166406,7.76699153 L8.54996484,12.0629661 L7.05448047,12.0629661 C6.67433594,12.0629661 6.32212109,12.1822881 6.0335,12.3843644 L6.0335,10.780339 C6.0335,9.52118644 5.22512891,8.39381356 4.02226172,7.97512712 C3.68964062,7.8590678 3.34094922,7.80224576 2.98314844,7.80588983 C1.35381641,7.82322034 0.0155976562,9.14457627 0.00012890625,10.7514831 C-0.0089375,11.6895339 0.417269531,12.5573305 1.1694375,13.1323729 C1.87128906,13.6689407 2.29036328,14.5346186 2.29036328,15.4481356 L2.29036328,17.5047458 C2.29036328,17.7082203 2.45764062,17.873178 2.66397656,17.873178 L3.38877344,17.873178 L3.71774219,19.6561441 C3.75005469,19.8312712 3.90478516,19.9586017 4.08529687,19.9586017 L5.51508203,19.9586017 C5.72141797,19.9586017 5.88869531,19.7936441 5.88869531,19.5901695 L5.88869531,17.873178 L14.2424219,17.873178 C14.4488008,17.873178 14.6160352,17.7082203 14.6160352,17.5047458 C14.6160352,17.3012712 14.4488008,17.1363136 14.2424219,17.1363136 L3.03763281,17.1363136 L3.03763281,16.2755085 L18.9618086,16.2755085 L18.9618086,17.1363136 L15.4876992,17.1363136 C15.2813203,17.1363136 15.1140859,17.3012712 15.1140859,17.5047458 C15.1140859,17.7082203 15.2813203,17.873178 15.4876992,17.873178 L16.1118633,17.873178 L16.1118633,19.5902119 C16.1118633,19.7936864 16.2790977,19.9586441 16.4854766,19.9586441 L17.9152617,19.9586441 C18.0958164,19.9586441 18.2505469,19.8312712 18.2828164,19.6560593 L18.6112266,17.873178 L19.3353789,17.873178 C19.5417578,17.873178 19.7089922,17.7082203 19.7089922,17.5047458 L19.7089922,15.4072881 C19.7089922,14.5212712 20.1290547,13.6832627 20.8614141,13.1083051 C21.5850078,12.5402119 22,11.6917373 22,10.7803814 C22.000043,9.14016949 20.6465703,7.80572034 18.9829492,7.80572034 Z M5.14155469,17.873178 L5.14155469,19.2217797 L4.39707812,19.2217797 L4.14824609,17.873178 L5.14155469,17.873178 Z M17.6034375,19.221822 L16.8591328,19.221822 L16.8591328,17.8732203 L17.8519258,17.8732203 L17.6034375,19.221822 Z M7.05452344,12.7997881 L14.9449609,12.7997881 C15.5082383,12.7997881 15.966543,13.2514407 15.966543,13.8066102 L15.966543,15.5386864 L6.03354297,15.5386864 L6.03354297,13.8066102 C6.03354297,13.2514407 6.49154687,12.7997881 7.05452344,12.7997881 Z M1.6273125,12.5500424 C1.06128516,12.1173305 0.740523437,11.464322 0.7473125,10.7585169 C0.758957031,9.54974576 1.76558594,8.55576271 2.99126953,8.54275424 C3.25986719,8.53961864 3.52326562,8.58262712 3.77330078,8.66987288 C4.67826562,8.98491525 5.28631641,9.83300847 5.28631641,10.7803814 L5.28631641,15.5386441 L3.03763281,15.5386441 L3.03763281,15.448178 C3.03763281,14.3085593 2.51040625,13.2251695 1.6273125,12.5500424 Z M20.3960625,12.5318644 C19.4846094,13.2475 18.9618945,14.2955085 18.9618945,15.4073305 L18.9618945,15.5386441 L16.7137695,15.5386441 L16.7137695,10.780339 C16.7137695,9.83300847 17.3217773,8.98487288 18.2271719,8.66974576 C18.468957,8.58533898 18.7232461,8.54258475 18.9830352,8.54258475 C20.2346719,8.54258475 21.2529023,9.54644068 21.2529023,10.7803814 C21.2528594,11.4659746 20.9405195,12.1044068 20.3960625,12.5318644 Z" id="Shape" fill="#000000"></path>
                    <path d="M3.89765234,7.42275424 C4.10398828,7.42275424 4.27126562,7.25779661 4.27126562,7.05432203 L4.27126562,5.46733051 C4.27126562,2.88169492 6.40444922,0.778177966 9.02640234,0.778177966 L12.9736836,0.778177966 C13.3882891,0.778177966 13.799543,0.830720339 14.1960586,0.934491525 C14.3954766,0.986652542 14.6000508,0.869491525 14.6529453,0.67279661 C14.7058828,0.476144068 14.5870742,0.27440678 14.3876562,0.222245763 C13.9286211,0.102245763 13.4529141,0.0413135593 12.9736836,0.0413135593 L9.02640234,0.0413135593 C5.99242187,0.0413135593 3.52403906,2.47538136 3.52403906,5.46733051 L3.52403906,7.05432203 C3.52403906,7.25779661 3.69131641,7.42275424 3.89765234,7.42275424 Z" id="Shape" fill="#000000"></path>
                    <path d="M14.4943906,7.49385593 L14.1004961,8.46720339 C14.0240117,8.65618644 14.1173828,8.87050847 14.3090664,8.94597458 C14.3544414,8.96385593 14.4013203,8.97228814 14.4473828,8.97228814 C14.5957969,8.97228814 14.7361328,8.88449153 14.7944844,8.74033898 L15.1883789,7.76699153 C15.2648633,7.57800847 15.1714922,7.36368644 14.9798086,7.28822034 C14.7883398,7.21283898 14.570832,7.30483051 14.4943906,7.49385593 Z" id="Shape" fill="#000000"></path>
                    <path d="M19.0320625,9.76711864 C18.4140859,9.76711864 17.9113086,10.2629237 17.9113086,10.8723305 C17.9113086,11.4817373 18.4140859,11.9775424 19.0320625,11.9775424 C19.6500391,11.9775424 20.1528594,11.4817373 20.1528594,10.8723305 C20.1528594,10.2628814 19.6500391,9.76711864 19.0320625,9.76711864 Z M19.0320625,11.240678 C18.8260703,11.240678 18.6584922,11.0754237 18.6584922,10.8722881 C18.6584922,10.6691525 18.8260703,10.5038983 19.0320625,10.5038983 C19.2380977,10.5038983 19.4056758,10.6691525 19.4056758,10.8722881 C19.4056328,11.0754237 19.2380977,11.240678 19.0320625,11.240678 Z" id="Shape" fill="#000000"></path>
                    <path d="M4.08873438,10.8723305 C4.08873438,10.2629237 3.58595703,9.76711864 2.96798047,9.76711864 C2.35000391,9.76711864 1.84722656,10.2628814 1.84722656,10.8723305 C1.84722656,11.4817373 2.35000391,11.9775424 2.96798047,11.9775424 C3.58595703,11.9775424 4.08873438,11.4817373 4.08873438,10.8723305 Z M2.96798047,11.240678 C2.76198828,11.240678 2.59441016,11.0754237 2.59441016,10.8722881 C2.59441016,10.6691525 2.76198828,10.5038983 2.96798047,10.5038983 C3.17397266,10.5038983 3.34155078,10.6691525 3.34155078,10.8722881 C3.34155078,11.0754237 3.17397266,11.240678 2.96798047,11.240678 Z" id="Shape" fill="#000000"></path>
                </g>
            </g>
        </g>
    </g>
</svg>