<svg xmlns="http://www.w3.org/2000/svg" xmlns:xlink="http://www.w3.org/1999/xlink" width="34" height="55" version="1.1" viewBox="0 0 34 55"><title>hiker</title><desc>Created with Sketch.</desc><g id="Welcome" fill="none" fill-rule="evenodd" stroke="none" stroke-width="1"><g id="юг-мебель" fill-rule="nonzero" transform="translate(-780.000000, -881.000000)"><g id="hiker" transform="translate(780.000000, 881.000000)"><polygon id="Shape" fill="#FFD6CF" points="21.15 14.244 21.763 10.141 18.349 9.924 17.668 13.66"/><polygon id="Shape" fill="#831232" points="21.416 12.736 21.763 10.141 18.373 9.789 17.936 12.144" opacity=".32"/><path id="Shape" fill="#347642" d="M2.29194,46.2912168 L10.0358933,38.931002 L12.8286533,29.4445706 L17.10234,29.4445706 L14.0245467,40.539274 C13.94238,40.8437423 13.79482,41.113681 13.6031733,41.3418916 C13.53132,41.4450307 13.4509667,41.5440082 13.3586,41.6356748 L4.28332,50.3481697 L2.29194,46.2912168 Z"/><g id="Group" fill="#2B5448" opacity=".53" transform="translate(11.673333, 29.355828)"><polygon id="Shape" points="1.155 .089 .077 3.75 4.413 3.75 5.429 .089"/></g><path id="Shape" fill="#FFD6CF" d="M24.4961467,0.970429448 C24.0030333,0.444611452 23.3350467,0.140817996 22.6151533,0.115173824 L19.4391,0.001799591 C17.94616,-0.0500511247 16.6928067,1.10866053 16.6392,2.58758691 L16.4391667,8.10783231 C16.4132133,8.82226994 16.6705933,9.5053272 17.1637067,10.0312577 C17.65682,10.5571881 18.3248067,10.8608691 19.0447,10.8866258 L22.22064,11 C22.2537333,11.0012372 22.2867133,11.0017996 22.3196933,11.0017996 C23.0034333,11.0017996 23.6532867,10.7479448 24.1588667,10.2810634 C24.6887,9.79168712 24.9948133,9.12865031 25.0206533,8.41432515 L25.2208,2.89407975 C25.24664,2.1793047 24.9893733,1.49624744 24.4961467,0.970429448 Z"/><path id="Shape" fill="#C71C4B" d="M25.00898,1.72940695 C24.8878267,1.45395706 24.7190733,1.19751534 24.5062333,0.970429448 C24.01312,0.444611452 23.3451333,0.140817996 22.62524,0.115173824 L19.4491867,0.001799591 C17.9562467,-0.0500511247 16.7028933,1.10866053 16.6492867,2.58758691 L16.5308533,5.8550818 C17.8324867,5.61854806 22.4462867,4.60324131 25.00898,1.72940695 Z"/><path id="Shape" fill="#71CE93" d="M23.5442067,17.4255521 C23.8876067,15.4805317 22.56512,13.6103067 20.6052467,13.2693967 L16.9045733,12.625818 C16.3143333,12.5231288 15.74676,12.9184765 15.6432867,13.5042434 L12.8286533,29.4444581 L16.3503733,30.0568814 C16.3705467,30.0974847 16.3897,30.1383129 16.41282,30.1780164 L22.30162,40.4949591 L22.30162,51.8721984 L26.57814,52.3652863 L26.57814,40.0758793 C26.57814,39.9463088 26.5644267,39.8198875 26.54176,39.6965031 C26.5146733,39.4006953 26.4267267,39.1062372 26.2678333,38.8332618 L21.30066,30.1308896 L22.67052,22.3729652 L23.5442067,17.4255521 Z"/><polygon id="Shape" fill="#71CE93" points="14.654 20.793 22.786 28.863 22.838 28.812 22.84 28.881 33.063 28.444 32.892 24.517 24.375 24.881 17.93 18.751" transform="translate(23.858505, 23.815812) rotate(45.000000) translate(-23.858505, -23.815812)"/><path id="Shape" fill="#D8EDDE" d="M6.0537,54.4048978 L0.0852266667,48.4816564 L2.29239333,46.2912168 L6.82074,51.9667894 C7.24404,52.4973313 7.20108667,53.2579959 6.72066667,53.7382618 L6.0537,54.4048978 Z"/><polygon id="Shape" fill="#FFD6CF" points="27.586 31.768 32.952 31.498 31.394 35.606 27.756 35.695" transform="translate(30.268785, 33.596814) rotate(42.000000) translate(-30.268785, -33.596814)"/><path id="Shape" fill="#3F8E50" d="M26.5418733,39.6965031 C26.5147867,39.4006953 26.42684,39.1062372 26.2679467,38.8332618 L21.3007733,30.1308896 L21.8299267,27.1340082 L13.48508,25.7272904 L12.8286533,29.4444581 L16.3503733,30.0568814 C16.3705467,30.0974847 16.3897,30.1383129 16.41282,30.1780164 L22.30162,40.4949591 L22.30162,51.8721984 L26.57814,52.9466667 L26.57814,40.0758793 C26.5782533,39.9463088 26.56454,39.8198875 26.5418733,39.6965031 Z"/><ellipse id="Oval" cx="20.891" cy="5.501" fill="#FFD6CF" rx="1.589" ry="1.577"/><path id="Shape" fill="#D8EDDE" d="M30.74246,54.9700818 L22.3017333,54.9700818 L22.3017333,51.8724233 L29.5475867,52.7078834 C30.2248667,52.7859407 30.7364533,53.3540491 30.7389467,54.0306953 L30.74246,54.9700818 Z"/></g></g></g></svg>